<?xml version="1.0" encoding="UTF-8"?>
<!-- Generator: visioncortex VTracer 0.6.12 -->
<svg version="1.1" xmlns="http://www.w3.org/2000/svg" width="100" height="103">
<path d="M0 0 C33 0 66 0 100 0 C100 33.99 100 67.98 100 103 C67 103 34 103 0 103 C0 69.00999999999999 0 35.019999999999996 0 0 Z " fill="#6A6A6A" transform="translate(0,0)"/>
<path d="M0 0 C33 0 66 0 100 0 C100 0.66 100 1.32 100 2 C68.32 2.33 36.64 2.66 4 3 C12.91 11.91 21.82 20.82 31 30 C34.922925835442356 42.295286804373234 34.922925835442356 42.295286804373234 34.465087890625 48.980224609375 C34.309735034880504 51.6092920577103 34.442812901702396 54.121260886352054 34.603515625 56.748046875 C34.137742937380246 77.9920181018603 21.41373593982328 82.58626406017672 5 99 C20.675 99.16499999999999 20.675 99.16499999999999 100 100 C100 100.99 100 101.98 100 103 C67 103 34 103 0 103 C0 69.00999999999999 0 35.019999999999996 0 0 Z " fill="#8E8E8E" transform="translate(0,0)"/>
<path d="M0 0 C32.01 0 64.02 0 97 0 C91.16827508536737 11.663449829265257 80.16210359060976 25.125915757958193 67.63226318359375 29.90264892578125 C55.205326786251284 33.48778350589963 40.1381551052161 33.77799725272102 28 29 C16.516234462654865 22.61330051515995 7.50906451859808 11.58568174569745 0 1 C0 0.6699999999999999 0 0.33999999999999986 0 0 Z " fill="#DFDFDF" transform="translate(3,2)"/>
<path d="M0 0 C0 31.35 0 62.7 0 95 C-2.3100000000000023 93.02 -4.6200000000000045 91.04 -7 89 C-7 88.34 -7 87.68 -7 87 C-7.531093749999997 86.79375 -8.062187499999993 86.5875 -8.609375 86.375 C-12.007734360199052 84.42038808040839 -14.51055928207333 81.778762833495 -17.25 79 C-17.804296875000006 78.4534375 -18.358593749999997 77.906875 -18.9296875 77.34375 C-23 73.25338669950739 -23 73.25338669950739 -23 71 C-24.319999999999993 70.34 -25.64 69.68 -27 69 C-31.45641234675807 30.822521919311676 -31.45641234675807 30.822521919311676 -22.915283203125 19.32666015625 C-6.54961866407605 0 -6.54961866407605 0 0 0 Z " fill="#787878" transform="translate(100,4)"/>
<path d="M0 0 C12.54 0 25.08 0 38 0 C38 12.54 38 25.08 38 38 C25.46 38 12.920000000000002 38 0 38 C0 25.46 0 12.920000000000002 0 0 Z " fill="#B0B0B0" transform="translate(33,33)"/>
<path d="M0 0 C0.9809765625000004 0.8726953124999994 1.9619531250000009 1.7453906250000006 2.97265625 2.64453125 C5.592062336308434 4.918115016019794 8.21826579591271 6.783196417424673 11.18359375 8.57421875 C17.998720665574353 13.238846638858405 22.464491362463754 18.36398589020419 24.033203125 26.6455078125 C26.12632861081118 41.05583909077865 27.7472265926165 59.732217126821155 18.7421875 72.0234375 C14.412463084141962 76.75853702317505 9.580367838576514 80.81048498751882 4 84 C3.67 84 3.34 84 3 84 C3.0026184082031246 83.65876098632813 3.0026184082031246 83.65876098632813 3.015869140625 81.931884765625 C3.12721559053338 64.66754723489402 2.983013927354751 47.408400493943425 2.681610107421875 30.146453857421875 C2.6438750994031306 27.924116164147584 2.6094706522540676 25.7017194179083 2.578399658203125 23.479278564453125 C2.5331929324909535 20.325778557503256 2.4753075842350327 17.172755462356015 2.4140625 14.01953125 C2.402506256103516 13.066611938476562 2.390950012207032 12.113692626953124 2.3790435791015625 11.13189697265625 C2.3591789245605472 10.25023864746094 2.339314270019532 9.368580322265625 2.31884765625 8.460205078125 C2.3055239868164072 7.692110137939453 2.2922003173828127 6.924015197753906 2.278472900390625 6.1326446533203125 C1.96612316959156 3.740559167011746 1.1870450769347247 2.084730590276626 0 0 Z " fill="#8D8D8D" transform="translate(8,8)"/>
<path d="M0 0 C13.86 0 27.72 0 42 0 C42.187499999999986 20.68749999999754 42.187499999999986 20.68749999999754 42.207763671875 27.194091796875 C42.23421828459368 28.90416534440677 42.26249737262772 30.614212060053134 42.29296875 32.32421875 C42.28898071289062 33.205494384765615 42.284992675781254 34.08677001953126 42.2808837890625 34.9947509765625 C42.383391756267045 39.42900666220211 42.4881909402682 41.366794205191795 45.35400390625 44.912353515625 C46.227182617187495 45.60127685546874 47.100361328125004 46.29020019531251 48 47 C49.01526759051772 48.02510692157239 50.02974526012139 49.05099762690088 51.04296875 50.078125 C52.09112307642677 51.13543922690741 53.13930038430236 52.19273067192921 54.1875 53.25 C54.72052734375001 53.791406249999994 55.2535546875 54.3328125 55.802734375 54.890625 C59.77426242236025 58.88713121118013 59.77426242236025 58.88713121118013 62 60 C62 60.66 62 61.31999999999999 62 62 C39.230000000000004 62 16.46 62 -7 62 C-7 61.34 -7 60.68000000000001 -7 60 C0.5899999999999999 59.83500000000001 0.5899999999999999 59.83500000000001 39 59 C38.504999999999995 58.83500000000001 38.504999999999995 58.83500000000001 36 58 C36 54.370000000000005 36 50.74000000000001 36 47 C30.50340401024262 46.86992348757224 25.01253511035781 46.81390231457581 19.514404296875 46.822998046875 C17.649317284841544 46.816071823408606 15.78418854676434 46.78979172054581 13.919677734375 46.742919921875 C-3.2440542951683113 46.33371227370212 -3.2440542951683113 46.33371227370212 -9.346481323242188 52.01823425292969 C-11.402455533503208 54.22984282854861 -13.252549286878718 56.539034439933175 -15 59 C-12.689999999999998 59.33 -10.379999999999999 59.66 -8 60 C-8 60.66 -8 61.31999999999999 -8 62 C-8.652265624999998 62.002578125 -9.30453125 62.00515625 -9.9765625 62.0078125 C-14.866104439481784 62.2241639132514 -18.098473335290535 62.459678287255954 -21.625 66.0625 C-22.016875 66.5471875 -22.016875 66.5471875 -24 69 C-24.990000000000002 68.67 -25.98 68.34 -27 68 C-26.608809814453124 67.71616455078126 -26.608809814453124 67.71616455078126 -24.629150390625 66.27978515625 C-2.202594868596652 49.519637292770895 -2.202594868596652 49.519637292770895 0.32958984375 36.646484375 C1.9364510099570538 24.36868829676027 0.7200866022139323 12.401491482573292 0 0 Z M2 2 C2 14.54 2 27.08 2 40 C14.54 40 27.08 40 40 40 C40 27.46 40 14.920000000000002 40 2 C27.46 2 14.920000000000002 2 2 2 Z " fill="#626262" transform="translate(31,31)"/>
<path d="M0 0 C33 0 66 0 100 0 C100 0.66 100 1.32 100 2 C67.66 2 35.31999999999999 2 2 2 C2 35 2 68 2 102 C34.34 102 66.68 102 100 102 C100 102.33 100 102.66 100 103 C67 103 34 103 0 103 C0 69.00999999999999 0 35.019999999999996 0 0 Z " fill="#272B33" transform="translate(0,0)"/>
<path d="M0 0 C0 0.9900000000000002 0 1.9800000000000004 0 3 C-0.6599999999999966 2.67 -1.3199999999999932 2.34 -2 2 C-1.3400000000000034 1.3399999999999999 -0.6800000000000068 0.6799999999999997 0 0 Z M-3 3 C-3 3.99 -3 4.98 -3 6 C-3.6599999999999966 6.66 -4.319999999999993 7.32 -5 8 C-5.278472900390625 10.670196533203125 -5.278472900390625 10.670196533203125 -5.31884765625 14.10205078125 C-5.338717346191402 15.38322784423828 -5.358587036132818 16.66440490722656 -5.379058837890625 17.984405517578125 C-5.390936169942037 19.388039421724407 -5.402598975559002 20.791675155279865 -5.4140625 22.1953125 C-5.432766917536696 23.62736130830907 -5.452339781866627 25.059399017025015 -5.472747802734375 26.491424560546875 C-5.524152059641665 30.26264917132967 -5.563733106073414 34.03390954895086 -5.60089111328125 37.8052978515625 C-5.640879000596129 41.65284125735832 -5.691995043468097 45.50023482894326 -5.7421875 49.34765625 C-5.8390448671560335 56.898334831338246 -5.923417945116597 64.44908568444154 -6 72 C-5.340000000000003 72.33 -4.680000000000007 72.66 -4 73 C-4.659999999999997 73 -5.319999999999993 73 -6 73 C-6 75.97 -6 78.94 -6 82 C-6.329999999999998 82 -6.659999999999997 82 -7 82 C-7.764931466471992 77.93620705502173 -8.118879909421395 74.11489359311042 -8.09765625 69.982177734375 C-8.094353027343743 68.81754501342773 -8.0910498046875 67.65291229248047 -8.087646484375 66.45298767089844 C-8.079348144531252 65.20908767700195 -8.071049804687505 63.96518768310547 -8.0625 62.68359375 C-8.056714653112422 60.713875466792544 -8.050934901413711 58.744157148265444 -8.045486450195313 56.77443790435791 C-8.034584211347095 53.328772044652666 -8.017091467312582 49.88313981021698 -8 46.4375 C-7.979598963835599 42.320810914214896 -7.960368058730566 38.20414274383748 -7.948974609375 34.08741760253906 C-7.94145051788135 31.527615618724106 -7.929402487775903 28.967822061804313 -7.912353515625 26.408065795898438 C-7.909050292968743 25.246585235595703 -7.905747070312501 24.085104675292968 -7.90234375 22.888427734375 C-7.897106933593747 21.86949935913086 -7.891870117187494 20.85057098388672 -7.886474609375 19.800765991210938 C-7.996204197493995 17.093645610992063 -8.389518569781202 14.635228494550184 -9 12 C-9.659999999999997 12.329999999999998 -9.659999999999997 12.329999999999998 -13 14 C-9.79239749471975 10.193645027067445 -6.592538906479788 6.4543643331536416 -3 3 Z M-14 14 C-14 14.989999999999998 -14 15.98 -14 17 C-14.9734033203125 17.8142041015625 -15.946806640624999 18.628408203124998 -16.94970703125 19.46728515625 C-19.88056333721248 22.274519349590037 -20.48887782387851 24.24219582677437 -20.77294921875 28.27099609375 C-20.813699819303054 30.354771656256062 -20.822521569725197 32.43933981699665 -20.8046875 34.5234375 C-20.81154067993164 35.07409378051758 -20.81154067993164 35.07409378051758 -20.846221923828125 37.860748291015625 C-20.88350530800109 41.365915025068546 -20.87980775861419 44.86966319439639 -20.875 48.375 C-20.893127745370336 50.75653254802814 -20.91393066480336 53.138046339506545 -20.9375 55.51953125 C-20.989335492618892 61.34649309509655 -21.007561912200018 67.17282874682935 -21 73 C-21.33 72.34 -21.659999999999997 71.68 -22 71 C-24.0625 69.875 -24.0625 69.875 -26 69 C-26.29925132664154 63.096308443128194 -26.51553531447081 57.19712716267091 -26.6591796875 51.28759765625 C-26.719107614312676 49.28323403957449 -26.800690646939927 47.2793856942855 -26.9052734375 45.27685546875 C-27.798719878045205 27.714501416856557 -27.798719878045205 27.714501416856557 -23.275390625 21.931640625 C-20.45131312307349 18.89733297370724 -17.376635526672473 16.394479984528736 -14 14 Z " fill="#696969" transform="translate(99,4)"/>
<path d="M0 0 C0.33000000000000007 0.16500000000000004 0.33000000000000007 0.16500000000000004 2 1 C2 32.35 2 63.7 2 96 C33.68 96 65.36 96 98 96 C98 96.66 98 97.32 98 98 C65.66 98 33.31999999999999 98 0 98 C0 65.66 0 33.31999999999999 0 0 Z " fill="#A2A2A2" transform="translate(2,4)"/>
<path d="M0 0 C13.86 0 27.72 0 42 0 C42 13.86 42 27.72 42 42 C28.14 42 14.280000000000001 42 0 42 C0 28.14 0 14.280000000000001 0 0 Z M2 2 C2 14.54 2 27.08 2 40 C14.54 40 27.08 40 40 40 C40 27.46 40 14.920000000000002 40 2 C27.46 2 14.920000000000002 2 2 2 Z " fill="#4F4F4F" transform="translate(31,31)"/>
<path d="M0 0 C16.5 0 33 0 50 0 C46 5 46 5 43.951416015625 5.634918212890625 C43.22623779296876 5.638896179199218 42.50105957031249 5.642874145507811 41.75390625 5.64697265625 C41.34007690429688 5.654853057861327 41.34007690429688 5.654853057861327 39.245849609375 5.694732666015625 C38.36034423828124 5.684611511230468 37.4748388671875 5.674490356445311 36.5625 5.6640625 C35.64541259765625 5.668846130371094 34.7283251953125 5.6736297607421875 33.783447265625 5.678558349609375 C31.84682497485427 5.681956872092755 29.910145281677735 5.6727577122731745 27.9736328125 5.65185546875 C25.009766164219307 5.625088200169468 22.049686399530735 5.651603766859932 19.0859375 5.68359375 C17.203116643266043 5.680289642098174 15.320298142629554 5.673883385506336 13.4375 5.6640625 C12.55199462890625 5.674183654785157 11.6664892578125 5.684304809570314 10.754150390625 5.694732666015625 C9.92649169921875 5.67897186279297 9.098833007812502 5.663211059570312 8.24609375 5.64697265625 C7.520915527343746 5.642994689941407 6.795737304687499 5.639016723632814 6.048583984375 5.634918212890625 C4 5 4 5 0 0 Z " fill="#DEDEDE" transform="translate(27,26)"/>
<path d="M0 0 C1.1289487627401211 0.9327410900713833 2.2530087590898376 1.871401224461069 3.375 2.8125 C4.001484375 3.3345703125000004 4.627968750000001 3.8566406250000007 5.2734375 4.39453125 C7 6 7 6 9 9 C8.009999999999998 8.670000000000002 7.02 8.34 6 8 C6.006661834716798 8.922636413574217 6.013323669433593 9.845272827148438 6.0201873779296875 10.795867919921875 C6.08022158031855 19.477742328159508 6.125935163347361 28.15954733928138 6.1554365158081055 36.84158134460449 C6.171113189416186 41.30544745715249 6.192387693147598 45.76914251033394 6.226318359375 50.23291015625 C6.258840846117359 54.538216279934915 6.276837922848827 58.84335755580162 6.284631729125977 63.14877700805664 C6.290188080022524 64.7938916188037 6.301037889898549 66.43899689717053 6.317190170288086 68.08404159545898 C6.338870530379632 70.38288845552812 6.341970960396754 72.68104834385807 6.340576171875 74.97998046875 C6.347238006591798 76.29014129638672 6.353899841308593 77.60030212402344 6.3607635498046875 78.95016479492188 C6.2417115783691415 79.95661041259766 6.122659606933594 80.96305603027344 6 82 C5.504999999999999 82.33 5.504999999999999 82.33 3 84 C3.0026184082031246 83.65876098632813 3.0026184082031246 83.65876098632813 3.015869140625 81.931884765625 C3.12721559053338 64.66754723489402 2.983013927354751 47.408400493943425 2.681610107421875 30.146453857421875 C2.6438750994031306 27.924116164147584 2.6094706522540676 25.7017194179083 2.578399658203125 23.479278564453125 C2.5331929324909535 20.325778557503256 2.4753075842350327 17.172755462356015 2.4140625 14.01953125 C2.402506256103516 13.066611938476562 2.390950012207032 12.113692626953124 2.3790435791015625 11.13189697265625 C2.3591789245605472 10.25023864746094 2.339314270019532 9.368580322265625 2.31884765625 8.460205078125 C2.3055239868164072 7.692110137939453 2.2922003173828127 6.924015197753906 2.278472900390625 6.1326446533203125 C1.96612316959156 3.740559167011746 1.1870450769347247 2.084730590276626 0 0 Z " fill="#818181" transform="translate(8,8)"/>
<path d="M0 0 C26.400000000000006 0 52.80000000000001 0 80 0 C76.23297428527404 3.767025714725957 75.01259322340728 3.378767588445106 69.806396484375 3.38818359375 C69.07765319824219 3.393440551757813 68.34890991210938 3.3986975097656256 67.59808349609375 3.40411376953125 C65.18886902618408 3.4173198035367616 62.78031495270278 3.408574872712382 60.37109375 3.3984375 C58.698652882273564 3.4004578524782314 57.026212872222146 3.403368966118384 55.35377502441406 3.407135009765625 C51.84912730343897 3.4115589814242853 48.34470895855582 3.405124250116817 44.840087890625 3.39111328125 C40.34160104467976 3.374007994252608 35.84365060116419 3.3838703851513756 31.34518337249756 3.4018306732177734 C27.892277373726877 3.412655354693486 24.4394992164667 3.409228498351048 20.986589431762695 3.401447296142578 C19.327545160388777 3.3994423197497614 17.66848937931724 3.4019149653183636 16.009458541870117 3.408885955810547 C13.694061061233263 3.4164804981571795 11.379540879145658 3.4049260336163254 9.064208984375 3.38818359375 C7.74533187866211 3.385796813964843 6.426454772949221 3.383410034179688 5.0676116943359375 3.380950927734375 C4.055299835205076 3.255237121582031 3.042987976074219 3.1295233154296866 2 3 C1.3399999999999999 2.01 0.6799999999999997 1.0199999999999996 0 0 Z " fill="#C8C8C8" transform="translate(12,11)"/>
<path d="M0 0 C2.4999999999999574 1.3749999999999716 2.4999999999999574 1.3749999999999716 5 3 C5 3.6599999999999966 5 4.319999999999993 5 5 C-17.769999999999996 5 -40.54 5 -64 5 C-64 4.340000000000003 -64 3.680000000000007 -64 3 C-42.879999999999995 2.6700000000000017 -21.75999999999999 2.3400000000000034 0 2 C0 1.3400000000000034 0 0.6800000000000068 0 0 Z " fill="#5E5E5E" transform="translate(88,88)"/>
<path d="M0 0 C0.3299999999999983 0 0.6599999999999966 0 1 0 C1 14.520000000000003 1 29.040000000000006 1 44 C0.010000000000005116 43.67 -0.980000000000004 43.34 -2 43 C-2.0493465588554898 37.19760385642361 -2.0856940220433415 31.395329187835365 -2.10986328125 25.5927734375 C-2.1199362744136323 23.61781690690117 -2.133595212518415 21.642875339405492 -2.15087890625 19.66796875 C-2.1750703921145202 16.833295818110656 -2.1864699131435685 13.998819623798965 -2.1953125 11.1640625 C-2.2056350708007813 10.277560119628909 -2.2159576416015625 9.39105773925781 -2.226593017578125 8.477691650390625 C-2.2269906991887893 6.317140483833569 -2.12272534068822 4.157062816010395 -2 2 C-1.3400000000000034 1.3399999999999999 -0.6800000000000068 0.6799999999999997 0 0 Z " fill="#777777" transform="translate(75,30)"/>
<path d="M0 0 C0.7239193725585977 0.006661834716794601 1.4478387451171884 0.013323669433589203 2.193695068359375 0.0201873779296875 C3.0143948364257795 0.02041397094725994 3.835094604492184 0.020640563964846592 4.6806640625 0.0208740234375 C5.123915252685549 0.028615951538085938 5.123915252685549 0.028615951538085938 7.367034912109375 0.0677947998046875 C8.274242858886723 0.07203964233399063 9.181450805664063 0.07628448486327954 10.11614990234375 0.080657958984375 C13.02038972897111 0.09748222339307233 15.923941509204049 0.1351409512609365 18.827972412109375 0.1732635498046875 C20.794108240616126 0.1883055563900058 22.760254920187904 0.20199480089648603 24.726409912109375 0.2142791748046875 C29.55219679864804 0.247397982225948 34.377467864859085 0.2992056938113734 39.202972412109375 0.3607635498046875 C39.36797241210937 0.855763549804692 39.36797241210937 0.855763549804692 40.202972412109375 3.3607635498046875 C25.682972412109372 3.3607635498046875 11.162972412109369 3.3607635498046875 -3.797027587890625 3.3607635498046875 C-1.797027587890625 0.3607635498046875 -1.797027587890625 0.3607635498046875 0 0 Z " fill="#696969" transform="translate(33.797027587890625,72.63923645019531)"/>
<path d="M0 0 C1.6499999999999986 1.3200000000000003 3.3000000000000007 2.6400000000000006 5 4 C4.670000000000002 4.66 4.34 5.32 4 6 C3.6700000000000017 5.670000000000002 3.34 5.34 3 5 C3.006661834716798 5.546794128417968 3.0133236694335928 6.093588256835936 3.0201873779296875 6.656951904296875 C3.0864199535221104 12.33422989472723 3.1317499532948823 18.011398642104865 3.164794921875 23.68896484375 C3.17990644577732 25.809452875204762 3.2003964029082255 27.929909536002405 3.226318359375 30.05029296875 C3.2625978631042507 33.09350310509784 3.279702423940794 36.1363010271766 3.29296875 39.1796875 C3.308452606201172 40.13181121826172 3.3239364624023438 41.083934936523434 3.3398895263671875 42.064910888671875 C3.340116119384767 42.94567291259766 3.340342712402343 43.82643493652344 3.340576171875 44.73388671875 C3.347238006591798 45.51110076904297 3.3538998413085928 46.28831481933594 3.3607635498046875 47.089080810546875 C3.2417115783691415 47.71968414306642 3.1226596069335955 48.35028747558593 3 49 C2.009999999999998 49.66 1.0199999999999996 50.31999999999999 0 51 C0 34.17 0 17.339999999999996 0 0 Z " fill="#7A7A7A" transform="translate(26,26)"/>
<path d="M0 0 C16.5 0 33 0 50 0 C46.62414534715758 3.375854652842424 46.62414534715758 3.375854652842424 42.560302734375 3.38818359375 C41.66605087280274 3.3976400756835936 40.77179901123047 3.407096557617187 39.85044860839844 3.416839599609375 C38.88788650512694 3.4107669067382815 37.92532440185548 3.404694213867188 36.93359375 3.3984375 C35.94375991821289 3.4013076782226577 34.95392608642578 3.404177856445312 33.93409729003906 3.407135009765625 C31.84188260762616 3.4091765670198058 29.749648878674364 3.4036403325813005 27.657470703125 3.39111328125 C24.446345854405635 3.3750442661604936 21.236476508310986 3.3909679638666788 18.025390625 3.41015625 C15.994788876815697 3.408174169189632 13.964187912409074 3.4043312223951574 11.93359375 3.3984375 C10.969007415771486 3.4045101928710935 10.004421081542972 3.410582885742187 9.010604858398438 3.416839599609375 C8.565055007934575 3.4121113586425764 8.565055007934575 3.4121113586425764 6.310302734375 3.38818359375 C5.52437240600586 3.385796813964845 4.738442077636719 3.383410034179686 3.9286956787109375 3.380950927734375 C3.2922261047363293 3.255237121582031 2.6557565307617175 3.1295233154296866 2 3 C1.3399999999999999 2.009999999999998 0.6799999999999997 1.0199999999999996 0 0 Z " fill="#BCBCBC" transform="translate(27,26)"/>
<path d="M0 0 C1.1289487627401211 0.9327410900713833 2.2530087590898376 1.871401224461069 3.375 2.8125 C4.001484375 3.3345703125000004 4.627968750000001 3.8566406250000007 5.2734375 4.39453125 C7 6 7 6 9 9 C8.009999999999998 8.670000000000002 7.02 8.34 6 8 C5.67 16.25 5.34 24.5 5 33 C4.67 33.165 4.67 33.165 3 34 C2.9801806640625 33.112158203125 2.960361328125 32.22431640625 2.93994140625 31.3095703125 C2.861717676628821 28.006886656339475 2.775021151706648 24.704649356073666 2.6826171875 21.40234375 C2.64439975722588 19.97469601569221 2.6095342848853633 18.5469543670805 2.578125 17.119140625 C2.5323159904313837 15.063461320608369 2.4743501974692315 13.008424464736315 2.4140625 10.953125 C2.3826416015625007 9.717236328125 2.3512207031249996 8.481347656250001 2.31884765625 7.2080078125 C2.02317999234379 4.2332198310853 1.559726692401794 2.5065081583158673 0 0 Z " fill="#7E7E7E" transform="translate(8,8)"/>
<path d="M0 0 C0.6599999999999966 0 1.3200000000000003 0 2 0 C2.7013291252341887 6.700197892862327 3.1104496141229134 13.262573538502338 3 20 C2.3400000000000034 20.33 1.6799999999999997 20.659999999999997 1 21 C-0.1742626404022687 18.651474719195463 -0.11508172897798374 17.26225934669735 -0.09765625 14.6484375 C-0.09443359374999716 13.797656250000003 -0.09121093750000142 12.946874999999999 -0.087890625 12.0703125 C-0.0795117187499983 11.180859374999997 -0.07113281249999659 10.291406250000001 -0.0625 9.375 C-0.05798828124999744 8.477812499999999 -0.05347656250000199 7.580624999999998 -0.048828125 6.65625 C-0.037025909663022105 4.437433516648326 -0.020561553751676342 2.2187498156036014 0 0 Z " fill="#A5A5A5" transform="translate(33,33)"/>
<path d="M0 0 C1.9375 0.8125 1.9375 0.8125 4 2 C4.329999999999998 2.989999999999995 4.659999999999997 3.980000000000004 5 5 C1.3700000000000045 5 -2.260000000000005 5 -6 5 C-6 4.340000000000003 -6 3.680000000000007 -6 3 C-4.019999999999996 2.6700000000000017 -2.0400000000000063 2.3400000000000034 0 2 C0 1.3400000000000034 0 0.6800000000000068 0 0 Z " fill="#545454" transform="translate(73,73)"/>
<path d="M0 0 C1.1289487627401211 0.9327410900713833 2.2530087590898376 1.871401224461069 3.375 2.8125 C4.001484375 3.3345703125000004 4.627968750000001 3.8566406250000007 5.2734375 4.39453125 C7 6 7 6 9 9 C8.381250000000001 8.79375 7.762499999999999 8.587499999999999 7.125 8.375 C6.42375 8.251249999999999 5.7225 8.127499999999998 5 8 C4.34 8.66 3.6799999999999997 9.32 3 10 C2.6906250000000007 8.906875 2.3812499999999996 7.813749999999999 2.0625 6.6875 C1.4166210335279708 4.445920057538254 0.7376882998785987 2.2130648996357962 0 0 Z " fill="#747474" transform="translate(8,8)"/>
<path d="M0 0 C2.5668736680793813 3.850310502119079 1.8328872393764541 5.585697631304782 1 10 C0.3400000000000034 10 -0.3200000000000003 10 -1 10 C-1.125 2.25 -1.125 2.25 0 0 Z " fill="#A7A7A7" transform="translate(34,59)"/>
</svg>
