<?xml version="1.0" encoding="UTF-8"?>
<!-- Generator: visioncortex VTracer 0.6.12 -->
<svg version="1.1" xmlns="http://www.w3.org/2000/svg" width="1024" height="1024">
<path d="M0 0 C337.92 0 675.84 0 1024 0 C1024 337.92 1024 675.84 1024 1024 C686.0799999999999 1024 348.15999999999997 1024 0 1024 C0 686.0799999999999 0 348.15999999999997 0 0 Z " fill="#FEFEFE" transform="translate(0,0)"/>
<path d="M0 0 C145.52999999999997 0 291.05999999999995 0 441 0 C441.04037864245174 146.18414522250367 441.04037864245174 146.18414522250367 441.04816496372223 202.08698737621307 C441.0502062783735 216.70595301631414 441.05229425844016 231.3249186485453 441.0545259937644 245.94388426095247 C441.0547958324669 247.71227483180587 441.0550642038995 249.4806654028838 441.05533108860254 251.24905597418547 C441.0596018461895 279.46652090195397 441.0671085404489 307.6839838327678 441.076297220774 335.9014475522563 C441.08571983849424 364.8897967138198 441.0918831234302 393.8781447700379 441.0939149900805 422.8664954372216 C441.0942031667389 426.95606188712475 441.0945288041273 431.0456283332527 441.094877243042 435.1351947784424 C441.09494466605133 435.94012093519325 441.0950120890607 436.7450470919441 441.0950815551914 437.57436495041475 C441.0962656419324 450.55835889923003 441.10091006521793 463.54234944130417 441.10683203395456 476.5263419980183 C441.1127049263039 489.56333440883475 441.1149715926273 502.60032342493423 441.11350137740374 515.6373171135783 C441.11273782343903 523.3933630339083 441.11479494839773 531.1493965787578 441.120797543088 538.9054402762558 C441.1249639590633 544.6808440677326 441.12397499363556 550.4562374300391 441.12089889496565 556.2316414788365 C441.1204729666156 558.5802308933165 441.12177068151834 560.9288213209535 441.1248831823468 563.2774087116122 C441.1288431462981 566.4475078728514 441.1267659081825 569.6175444702409 441.1230478286743 572.7876424789429 C441.12567484229805 573.7187445119023 441.1283018559218 574.6498465448618 441.1310084760189 575.6091637909412 C441.11414579824566 581.8858542017543 441.11414579824566 581.8858542017543 440 583 C437.6587729225928 583.0987193122413 435.34706199751326 583.131794749164 433.00530910491943 583.1230478286743 C432.63315371202305 583.1236247010343 432.63315371202305 583.1236247010343 430.7498218752444 583.1265440247953 C428.22507411033166 583.1292164788389 425.7003885238115 583.1246843921546 423.17564392089844 583.1202545166016 C421.36427291762016 583.1206914857084 419.55290197513034 583.1215675620487 417.7415313720703 583.1228485107422 C412.7291701438885 583.1251040652696 407.71683005419413 583.1210610125261 402.70447151362896 583.1160727292299 C397.22939333280965 583.1117260413274 391.7543162267265 583.1131660157788 386.27923679351807 583.1138906478882 C375.6367040080049 583.1144237241343 364.99417961514746 583.109792660019 354.35164899006486 583.1033893190324 C342.0492511534468 583.0962079032635 329.74685840538984 583.0953955924639 317.4444580078125 583.0946044921875 C284.9421373352477 583.089347584974 252.43981854304673 583.075386567682 219.9375 583.0625 C183.6478125 583.0521875 183.6478125 583.0521875 0 583 C0 390.61 0 198.21999999999997 0 0 Z " fill="#EFEFEF" transform="translate(286,216)"/>
<path d="M0 0 C145.52999999999997 0 291.05999999999995 0 441 0 C441.04037864245174 146.18414522250367 441.04037864245174 146.18414522250367 441.04816496372223 202.08698737621307 C441.0502062783735 216.70595301631414 441.05229425844016 231.3249186485453 441.0545259937644 245.94388426095247 C441.0547958324669 247.71227483180587 441.0550642038995 249.4806654028838 441.05533108860254 251.24905597418547 C441.0596018461895 279.46652090195397 441.0671085404489 307.6839838327678 441.076297220774 335.9014475522563 C441.08571983849424 364.8897967138198 441.0918831234302 393.8781447700379 441.0939149900805 422.8664954372216 C441.0942031667389 426.95606188712475 441.0945288041273 431.0456283332527 441.094877243042 435.1351947784424 C441.09494466605133 435.94012093519325 441.0950120890607 436.7450470919441 441.0950815551914 437.57436495041475 C441.0962656419324 450.55835889923003 441.10091006521793 463.54234944130417 441.10683203395456 476.5263419980183 C441.1127049263039 489.56333440883475 441.1149715926273 502.60032342493423 441.11350137740374 515.6373171135783 C441.11273782343903 523.3933630339083 441.11479494839773 531.1493965787578 441.120797543088 538.9054402762558 C441.1249639590633 544.6808440677326 441.12397499363556 550.4562374300391 441.12089889496565 556.2316414788365 C441.1204729666156 558.5802308933165 441.12177068151834 560.9288213209535 441.1248831823468 563.2774087116122 C441.1288431462981 566.4475078728514 441.1267659081825 569.6175444702409 441.1230478286743 572.7876424789429 C441.12567484229805 573.7187445119023 441.1283018559218 574.6498465448618 441.1310084760189 575.6091637909412 C441.11414579824566 581.8858542017543 441.11414579824566 581.8858542017543 440 583 C437.6587729225928 583.0987193122413 435.34706199751326 583.131794749164 433.00530910491943 583.1230478286743 C432.63315371202305 583.1236247010343 432.63315371202305 583.1236247010343 430.7498218752444 583.1265440247953 C428.22507411033166 583.1292164788389 425.7003885238115 583.1246843921546 423.17564392089844 583.1202545166016 C421.36427291762016 583.1206914857084 419.55290197513034 583.1215675620487 417.7415313720703 583.1228485107422 C412.7291701438885 583.1251040652696 407.71683005419413 583.1210610125261 402.70447151362896 583.1160727292299 C397.22939333280965 583.1117260413274 391.7543162267265 583.1131660157788 386.27923679351807 583.1138906478882 C375.6367040080049 583.1144237241343 364.99417961514746 583.109792660019 354.35164899006486 583.1033893190324 C342.0492511534468 583.0962079032635 329.74685840538984 583.0953955924639 317.4444580078125 583.0946044921875 C284.9421373352477 583.089347584974 252.43981854304673 583.075386567682 219.9375 583.0625 C183.6478125 583.0521875 183.6478125 583.0521875 0 583 C0 390.61 0 198.21999999999997 0 0 Z M47 49 C46.982890255906 95.41496192287781 46.96696852918922 141.8299241062843 46.95765686035156 188.24488830566406 C46.95751880328169 188.9312924316805 46.95738074621187 189.61769655769695 46.95723850559443 190.32490080874413 C46.9542459494815 205.24050060046227 46.951475717449 220.15610042571825 46.94893467053771 235.07170030102134 C46.94768727888322 242.38577221331616 46.946390732764314 249.69984411652968 46.945068359375 257.013916015625 C46.94493760031651 257.74177364815955 46.94480684125796 258.46963128069416 46.94467211980373 259.2195452051237 C46.940406935272904 282.83293789837427 46.93289277141355 306.44632820661286 46.923702779226005 330.0597194535658 C46.91427993641054 354.31533477628955 46.90811682409577 378.5709487779151 46.90608500991948 402.826565900119 C46.90579683370885 406.2485390794128 46.90547119633271 409.6705122541957 46.90512275695801 413.09248542785645 C46.90505533394867 413.76601228894197 46.90498791093938 414.4395391500275 46.90491844480857 415.1334759159945 C46.9037344066208 425.99745063819284 46.89909011323971 436.86142128841857 46.89316796604544 447.7253943467513 C46.88729475292729 458.6339924958536 46.88510973974468 469.5425871878101 46.886498622596264 480.45118694752455 C46.887142334384976 486.3671189638877 46.88612077896232 492.28303897783223 46.880794525146484 498.1989688873291 C46.8759622694684 503.6053465169314 46.87566019561069 509.0117039645054 46.87910110503435 514.4180824831128 C46.87952697136029 516.3830944178842 46.87822977894973 518.3481075642874 46.87511681765318 520.3131170794368 C46.87115572806539 522.965867647408 46.87323479227928 525.6185434900088 46.876952171325684 528.2712926864624 C46.874325157701946 529.0499819025397 46.871698144078266 529.8286711186171 46.868991523981094 530.6309569776058 C46.8858542017544 535.8858542017545 46.8858542017544 535.8858542017545 48 537 C49.821634218528345 537.0984194775392 51.6471350414098 537.125556339716 53.471426010131836 537.1258411407471 C54.666371644735364 537.1284488880634 55.861317279338834 537.1310566353798 57.0924733877182 537.1337434053421 C58.43554026895515 537.1315808784327 59.778607001205046 537.1293242022629 61.121673583984375 537.1269836425781 C62.53520549586324 537.1281345018483 63.94873710938714 537.1297217858128 65.36226809024811 537.1317108869553 C69.26496475904361 537.1359091586196 73.16763716861442 537.1338112788699 77.07033395767212 537.1307246685028 C81.27218705050262 537.1284727590785 85.47403581428108 537.1319491608837 89.67588806152344 537.1347045898438 C97.91515624548481 537.1391637646743 106.1544153476824 537.1381851011507 114.39368389546871 537.1352919489145 C121.08795336533302 537.1330381852098 127.78222028082155 537.1327252775191 134.47649002075195 537.1338157653809 C135.42743726737797 537.1339689984172 136.37838451400398 537.1341222314536 137.3581483438611 537.1342801079154 C139.28970061814073 537.1345998183058 141.2212528916802 537.1349240311736 143.15280516445637 537.135252699256 C161.28866649199256 537.1381080009432 179.42452277485768 537.1348198443684 197.56038327515125 537.1294523328543 C213.13465908801476 537.1249856864172 228.7089274472421 537.1257589820087 244.283203125 537.13037109375 C262.34883707568224 537.1357184479923 280.41446659627707 537.1378317873025 298.4801012277603 537.1347588300705 C300.4053603006439 537.1344402667875 302.330619374226 537.134125896411 304.2558784484863 537.1338157653809 C305.2032511460036 537.1336614898592 306.15062384352086 537.1335072143377 307.1267048045993 537.1333482638001 C313.8148621322632 537.1324834861784 320.50301665942914 537.1339451761605 327.1911735534668 537.1362953186035 C335.33920176923107 537.1390953642097 343.4872203473319 537.1383507696214 351.6352474540472 537.133014574647 C355.79552887283796 537.1303801188071 359.95579420332183 537.1293681821492 364.11607551574707 537.1326637268066 C367.9206733775518 537.13563200002 371.7252401583048 537.134024922741 375.5298351794481 537.1286861747503 C376.91006456669766 537.1275642563616 378.2902965515776 537.1281482295541 379.6705242842436 537.1305619627237 C381.5393116500036 537.1335806948523 383.4081063159166 537.1299016955953 385.276891708374 537.1258411407471 C386.31716306090357 537.1256787884236 387.3574344134331 537.1255164361 388.4292291402817 537.1253491640091 C391 537 391 537 394 536 C394 374.63 394 213.26 394 47 C337.85875 46.95875000000001 281.7175 46.91750000000002 223.875 46.875 C206.1270263671875 46.85679199218748 188.37905273437502 46.83858398437502 170.09326171875 46.81982421875 C148.474853515625 46.810791015625 148.474853515625 46.810791015625 138.36477661132813 46.809112548828125 C131.28086018623162 46.807243991284395 124.1969751412168 46.79989292210985 117.11306762695313 46.788848876953125 C108.94753713924518 46.77613731701035 100.78203685375979 46.77032363774964 92.61649639159441 46.77311009913683 C88.43757713378545 46.77431734450403 84.25872542077963 46.772374712102646 80.07981848716736 46.76156973838806 C76.30245267105022 46.75186214427862 72.5252023859822 46.75133695386654 68.74783134460449 46.75819778442383 C66.73209890416314 46.75945063344352 64.71636785225206 46.75080906879941 62.70065498352051 46.741838455200195 C61.5004962539673 46.74582019805905 60.30033752441409 46.74980194091796 59.06381034851074 46.75390434265137 C58.03021160960196 46.75314490199088 56.996612870693184 46.75238546133039 55.93169295787811 46.75160300731659 C52.7029041625741 47.02517238797367 50.02450315640232 47.863803941035485 47 49 Z " fill="#1E1E1E" transform="translate(286,216)"/>
<path d="M0 0 C115.83000000000004 0 231.66000000000008 0 351 0 C351.07991865796726 142.81464178754447 351.07991865796726 142.81464178754447 351.0671397149563 178.85786801576614 C351.0666431231998 180.26059144214844 351.06616190894385 181.6633148740446 351.065694719553 183.0660383105278 C351.04294629178617 251.14889569311367 350.8115479554468 319.23040815721197 350.5 387.3125 C350.49402628421785 388.620939822197 350.4880525684357 389.929379644394 350.48189783096313 391.2774691581726 C350.33145959616127 424.18503096601785 350.17161772724216 457.0925418374502 350 490 C349.6700000000001 490 349.3399999999999 490 349 490 C349 328.63 349 167.26 349 1 C320.8778125 1.072187499999984 320.8778125 1.072187499999984 178.5625 1.4375 C169.66575317382814 1.4590515136718523 169.66575317382814 1.4590515136718523 124.642822265625 1.568115234375 C103.00183105468636 1.6270751953125 103.00183105468636 1.6270751953125 92.88755798339844 1.6558990478515625 C85.78677241909861 1.675789324023981 78.68598656737964 1.6929412897604834 71.58518981933594 1.7082672119140625 C63.4065378844586 1.7259288107429143 55.227903414770424 1.7469969221044153 47.04927163943648 1.772373739629984 C42.860762844199826 1.7852604262339469 38.672266100433035 1.7965508433469495 34.48374283313751 1.8034695386886597 C30.703582193913746 1.8097428277852146 26.92346350336925 1.8205209392378379 23.143325805664063 1.8350448608398438 C21.76980788457672 1.8394990282079107 20.396283195896615 1.8422330013221426 19.02275836467743 1.8431588411331177 C17.164686702460074 1.8446546742870282 15.306623808294717 1.852787089982428 13.44857120513916 1.8613348007202148 C12.41307386457919 1.8639928430318946 11.377576524019219 1.8666508853435744 10.310700476169586 1.8693894743919373 C8 2 8 2 7 3 C5.350000000000023 3 3.6999999999999886 3 2 3 C2 163.71000000000004 2 324.4200000000001 2 490 C1.670000000000016 490 1.339999999999975 490 1 490 C0.827431380062535 451.8243564089182 0.6643360704617862 413.6486751951595 0.509044349193573 375.4729577302933 C0.5000314641173418 373.25773338152044 0.49100295765140345 371.04250909675056 0.48197412490844727 368.82728481292725 C0.19833087033521224 299.1636049882143 -0.04107216768221633 229.50024772573056 -0.06640625 159.8359375 C-0.06688610792161853 158.5920829820633 -0.06736596584318022 157.34822846412658 -0.06786036491394043 156.06668138504028 C-0.0868084632696764 104.04445254148209 -0.03330486790196119 52.022203662876564 0 0 Z " fill="#80807F" transform="translate(331,262)"/>
<path d="M0 0 C31.449319181254168 -0.02202641769241609 62.89863094947958 -0.04049787740711963 94.34795543178916 -0.05106532946228981 C98.05692147334855 -0.052316105849513406 101.76588749852226 -0.05361042133739602 105.474853515625 -0.054931640625 C106.21327305383977 -0.0551939510554007 106.9516925920546 -0.055456261485801406 107.71248847991228 -0.05572652071714401 C119.6845891862148 -0.06008333980179259 131.65668511340402 -0.06797095187914692 143.62878298014402 -0.0771527960896492 C155.9041122147919 -0.0864890066268913 168.1794389386007 -0.09205554003784755 180.45477157831192 -0.09408849477767944 C188.03540608141225 -0.09546379031763763 195.61602707882776 -0.09981473380622674 203.1966574266553 -0.1079164668917656 C208.99968485405066 -0.11380422150148206 214.80270526815514 -0.1144590461642565 220.6057357788086 -0.11310768127441406 C222.99351395641327 -0.11338420524555204 225.38129261607946 -0.11539187604364542 227.76906776428223 -0.11920547485351563 C231.01362125271362 -0.12413597143068955 234.25811560524244 -0.1230006785199862 237.50267028808594 -0.1202545166015625 C238.46082167565828 -0.12316735804080281 239.4189730632305 -0.12608019948004312 240.4061593413353 -0.12908130884170532 C246.8858787893156 -0.11412121068440229 246.8858787893156 -0.11412121068440229 248 1 C248.09788377143047 3.048523911866141 248.12371218275302 5.100491841546443 248.12304782867432 7.151352882385254 C248.12420167297125 7.804218969047042 248.1253555172682 8.457085055708887 248.1265443265438 9.129734963178635 C248.12921733619532 11.344617224620265 248.1246832620568 13.559428586945387 248.12025451660156 15.774307250976563 C248.1206900793951 17.36734342117944 248.12156470898094 18.960379522523283 248.12284368276596 20.55341523885727 C248.1250915866499 24.952172439690685 248.12106334808618 29.35090553170005 248.11606562137604 33.74965965747833 C248.1117655170235 38.485200983655545 248.11320723029337 43.220740841362385 248.1139678955078 47.95628356933594 C248.1144934119726 56.167977775094414 248.11134373884238 64.37966406342929 248.1057300567627 72.59135627746582 C248.09761877883227 84.46422942386505 248.09500022001453 96.33709872405927 248.09374206513166 108.2099743410945 C248.09155095837866 127.47079561393485 248.08488928613497 146.7316126627229 248.075439453125 165.992431640625 C248.06626685092397 184.7076006957227 248.05918527614347 203.4227686053996 248.054931640625 222.137939453125 C248.05466891713445 223.29065702266985 248.05440619364379 224.4433745922148 248.05413550883532 225.6310229972005 C248.05283051469553 231.41360385985024 248.05156679632228 237.19618473064372 248.05032360553741 242.9787656068802 C248.0399491652696 290.9858466582217 248.0223292597733 338.99292312357534 248 387 C246.01999999999998 387 244.03999999999996 387 242 387 C242 386.3399999999999 242 385.68000000000006 242 385 C242.65999999999997 385 243.31999999999994 385 244 385 C244.33000000000004 258.61 244.65999999999997 132.22000000000003 245 2 C164.80999999999995 2 84.62 2 2 2 C2 32 2 32 3 38 C2.8411723474016526 42.05732458001165 2.13735411430838 46.10050017951414 1 50 C0.6700000000000159 50 0.339999999999975 50 0 50 C0 33.5 0 17 0 0 Z " fill="#D8D8D7" transform="translate(383,314)"/>
<path d="M0 0 C1.1997841823101112 -0.003982096910476685 2.3995683646202224 -0.00796419382095337 3.6357096433639526 -0.012066960334777832 C4.945045963525786 -0.006241277456297212 6.254382283687619 -0.0004155945778165915 7.603395462036133 0.0055866241455078125 C9.015131504192254 0.004714146378034911 10.426867230236383 0.0029623874610251733 11.838601231575012 0.0004082918167114258 C15.713023381397761 -0.004060952396400808 19.587334829340193 0.003932625491302133 23.461742877960205 0.013964414596557617 C27.641635512923415 0.022602698898253948 31.821521924526962 0.01967848474936318 36.001420974731445 0.018159866333007813 C43.24175558441152 0.017111255897248157 50.482054142570576 0.023385372965947226 57.72237968444824 0.03463554382324219 C68.19066540145292 0.05089079846629829 78.65893368898588 0.05609857750607716 89.12723065912724 0.05861152708530426 C106.11141176739011 0.06298858717360645 123.0955736625923 0.07629799854788644 140.07974433898926 0.09521675109863281 C156.5781157569893 0.11357525832585225 173.07648195615343 0.12773190959302383 189.57486152648926 0.1362323760986328 C190.0833561020345 0.13649509958924 190.0833561020345 0.13649509958924 192.65664683282375 0.1378246396780014 C197.75859129121045 0.14043471788272655 202.86053578656254 0.1429621331218982 207.96248030662537 0.1454484462738037 C250.28706339648534 0.16618129102857893 292.6116255323476 0.20140713400337518 334.93618965148926 0.2460956573486328 C334.93618965148926 0.9060956573486578 334.93618965148926 1.566095657348626 334.93618965148926 2.246095657348633 C333.2861896514893 2.576095657348617 331.6361896514893 2.906095657348658 329.93618965148926 3.246095657348633 C330.59618965148934 3.246095657348633 331.2561896514892 3.246095657348633 331.93618965148926 3.246095657348633 C331.96114268551514 7.496173191199091 331.97916795279957 11.746210471263225 331.99112129211426 15.996339797973633 C331.9961111359247 17.438404659187995 332.0029053862397 18.880464565827594 332.01162910461426 20.322511672973633 C332.0239316939819 22.41033345682837 332.02947152988554 24.49808764533583 332.03384590148926 26.585939407348633 C332.0364643096924 27.211738967895485 332.0364643096924 27.211738967895485 332.04971504211426 30.378664016723633 C331.93618965148926 34.24609565734869 331.93618965148926 34.24609565734869 331.43618965148926 38.19214057922363 C330.583152782262 45.347499488577625 330.8135974989161 52.57502159863384 330.83853340148926 59.76953315734863 C330.8404021432523 61.36374046641561 330.84182388859347 62.957948355922895 330.8428211212158 64.55215644836426 C330.84661533452186 68.72334603350572 330.856415577279 72.89450007399358 330.867525100708 77.06567573547363 C330.87778756126136 81.31982126466926 330.88233400081185 85.5739725384746 330.88736152648926 89.82812690734863 C330.89690376611225 97.28959647850627 330.91138784232885 104.75104221996276 330.9294605255127 112.21249580383301 C330.9339217575837 114.2236920578668 330.93618965148926 116.23489445537228 330.93618965148926 118.24609565734863 C330.96160720739954 120.256428810192 330.987103346361 122.26676102440365 331.01313972473145 124.27708625793457 C331.0530212341192 127.68067114551872 331.07760513933476 131.08430514781855 331.10098457336426 134.48803901672363 C331.11610666177046 136.28333985643326 331.13660427680065 138.07860355864602 331.16250801086426 139.87378120422363 C331.1989095179531 142.46542575793728 331.21591373721105 145.05658587000767 331.22915840148926 147.64843940734863 C331.24464225769043 148.44958671569827 331.2601261138916 149.25073402404786 331.27607917785645 150.07615852355957 C331.2774411442758 154.58895858929168 330.8185136532484 156.8221592143093 327.93618965148926 160.24609565734863 C327.93841026306154 159.61017997741703 327.9406308746338 158.97426429748532 327.9429187774658 158.31907844543457 C327.96508962765563 151.68399811559846 327.980145463202 145.0489283607414 327.99112129211426 138.41382026672363 C327.9961414462042 135.93953206219203 328.00295890695156 133.46524681080416 328.01162910461426 130.99096870422363 C328.02379621512 127.42886817558485 328.0294412394892 123.86680696916358 328.03384590148926 120.30468940734863 C328.03900718688965 119.20338188171388 328.04416847229004 118.10207435607913 328.0494861602783 116.96739387512207 C328.04987465421095 111.61532016218598 327.884180592348 106.51745012779821 326.93618965148926 101.24609565734863 C327.59618965148934 101.24609565734863 328.2561896514892 101.24609565734863 328.93618965148926 101.24609565734863 C328.93618965148926 100.25609565734862 328.93618965148926 99.26609565734861 328.93618965148926 98.24609565734863 C328.2761896514892 97.91609565734865 327.6161896514893 97.58609565734866 326.93618965148926 97.24609565734863 C327.0984503936768 96.15820747375489 327.2607111358643 95.07031929016114 327.42788887023926 93.94946479797363 C328.08911615673105 88.62997511622672 328.0797476129088 83.34607546463945 328.06900215148926 77.99218940734863 C328.0699588775635 76.9325045013428 328.0709156036377 75.87281959533692 328.07190132141113 74.7810230255127 C328.07257883948137 72.55136238360524 328.07075455821905 70.32169972370207 328.06656074523926 68.09204292297363 C328.061201121817 64.69087462304071 328.0665230833574 61.28983804416998 328.07290840148926 57.88867378234863 C328.0722476481544 55.71484536780736 328.0709665438719 53.54101703474339 328.06900215148926 51.36718940734863 C328.07001426696775 50.861894531250016 328.07001426696775 50.861894531250016 328.0751361846924 48.30479621887207 C328.0582023517784 43.17619827000112 327.74592043803136 38.32334860735574 326.93618965148926 33.24609565734863 C327.0189773854713 30.72240505692679 327.1679892444014 28.200251255176738 327.37368965148926 25.683595657348633 C327.93810709203706 18.186294819524562 328.041952867232 10.767035443500447 327.93618965148926 3.246095657348633 C324.96618965148923 2.9160956573486487 321.9961896514892 2.586095657348608 318.93618965148926 2.246095657348633 C318.93618965148926 2.906095657348658 318.93618965148926 3.566095657348626 318.93618965148926 4.246095657348633 C318.35353340148924 4.173908157348649 317.77087715148923 4.101720657348608 317.17056465148926 4.027345657348633 C308.69667516373966 3.06803741345243 300.326150835072 2.545234701903439 291.93618965148926 4.246095657348633 C290.2646406517157 3.9381787363377043 288.5981341814288 3.602226628050005 286.93618965148926 3.246095657348633 C280.3806340959337 3.0238734351264043 280.3806340959337 3.0238734351264043 277.93618965148926 4.246095657348633 C275.81145478533585 4.013768783315982 273.6871094232954 3.776659802619406 271.56607246398926 3.512697219848633 C266.9861265842841 3.0484100957641544 262.41039995963547 3.1022206492440887 257.81118965148926 3.121095657348633 C256.8611505889892 3.1172284698486123 255.91111152648932 3.1133612823486487 254.93228340148926 3.109376907348633 C250.8378302292266 3.1150557605695326 246.86801442125045 3.174264956993852 242.81900215148926 3.816408157348633 C241.86767402648923 3.958205032348644 240.9163459014892 4.1000019073486555 239.93618965148926 4.246095657348633 C239.60618965148922 3.9160956573486487 239.2761896514893 3.586095657348608 238.93618965148926 3.246095657348633 C237.11806765193649 3.1464467783658847 235.29610180867553 3.1152907093411386 233.47525215148926 3.113283157348633 C232.3640802764893 3.111994094848626 231.25290840148932 3.110705032348619 230.10806465148926 3.109376907348633 C229.52283027648923 3.1113105010986146 229.52283027648923 3.1113105010986146 226.56118965148926 3.121095657348633 C225.39845527648924 3.1172284698486123 224.23572090148923 3.1133612823486487 223.03775215148926 3.109376907348633 C221.92400215148928 3.1106659698486396 220.8102521514893 3.1119550323486465 219.66275215148926 3.113283157348633 C218.63746406555174 3.11441108703616 217.61217597961422 3.1155390167236305 216.55581855773926 3.116701126098633 C213.93618965148926 3.246095657348633 213.93618965148926 3.246095657348633 210.93618965148926 4.246095657348633 C209.85595527648923 4.09140815734861 208.7757209014892 3.936720657348644 207.66275215148926 3.777345657348633 C203.98671607245603 3.2532985852851652 200.99209860418966 3.3737738322478776 197.31118965148926 3.746095657348633 C189.78200142162268 4.349637800023288 182.43801748296983 4.056596263937536 174.90640449523926 3.564455032348633 C174.04482734680175 3.5109589385986055 173.18325019836425 3.457462844848635 172.29556465148926 3.402345657348633 C171.91126289367674 3.375597610473619 171.91126289367674 3.375597610473619 169.96646308898926 3.240236282348633 C167.93618965148926 3.246095657348633 167.93618965148926 3.246095657348633 164.93618965148926 4.246095657348633 C158.93618965148926 4.246095657348633 158.93618965148926 4.246095657348633 156.66690254211426 3.754396438598633 C153.4783140049438 3.1608656979290686 150.4882250243258 3.1164279861262116 147.24478340148926 3.113283157348633 C146.60766426086423 3.112638626098658 146.60766426086423 3.112638626098658 143.38345527648926 3.109376907348633 C143.05430122375486 3.110424270629892 143.05430122375486 3.110424270629892 141.38858222961426 3.115724563598633 C139.37638022928797 3.1210884850826233 137.3644004922121 3.1157593735690625 135.35220527648926 3.109376907348633 C134.71573066711426 3.110021438598608 134.71573066711426 3.110021438598608 131.49478340148926 3.113283157348633 C130.332612991333 3.11441108703616 129.17044258117676 3.1155390167236305 127.97305488586426 3.116701126098633 C125.4226571980887 3.2253682837898623 123.38015520691357 3.611365055127351 120.93618965148926 4.246095657348633 C120.60618965148922 3.9160956573486487 120.27618965148929 3.586095657348608 119.93618965148926 3.246095657348633 C118.19106833733736 3.146578302442208 116.44195754767321 3.1152926314450724 114.69400215148926 3.113283157348633 C114.16097480773925 3.112638626098658 114.16097480773925 3.112638626098658 111.46353340148926 3.109376907348633 C110.34075996398929 3.1132440948486533 109.21798652648926 3.117111282348617 108.06118965148926 3.121095657348633 C106.94615058898927 3.1172284698486123 105.83111152648928 3.1133612823486487 104.68228340148926 3.109376907348633 C103.61365058898923 3.1106659698486396 102.54501777648926 3.1119550323486465 101.44400215148926 3.113283157348633 C100.95230537414551 3.1138471221923965 100.95230537414551 3.1138471221923965 98.46402168273926 3.116701126098633 C95.93618965148926 3.246095657348633 95.93618965148926 3.246095657348633 92.93618965148926 4.246095657348633 C92.93618965148926 3.586095657348608 92.93618965148926 2.9260956573486396 92.93618965148926 2.246095657348633 C92.47921699523926 2.2821894073486533 92.47921699523926 2.2821894073486533 90.16665840148926 2.464845657348633 C80.6721487348529 3.1485866148896093 71.20492633445542 3.355780937204429 61.68618965148926 3.371095657348633 C60.508228225708024 3.3756073760986283 59.33026679992679 3.3801190948486237 58.11660957336426 3.384767532348633 C57.000039749145515 3.382833938598651 55.88346992492677 3.3809003448486123 54.73306465148926 3.378908157348633 C53.736297073364256 3.3777802276611055 52.73952949523925 3.376652297973635 51.71255683898926 3.375490188598633 C48.93618965148926 3.246095657348633 48.93618965148926 3.246095657348633 46.38638496398926 2.675294876098633 C43.56189474154439 2.1805306462204044 41.733029938828054 2.655249776213509 38.93618965148926 3.246095657348633 C36.293302055053005 3.3164319872604437 33.679081027169275 3.3391308228797243 31.037752151489258 3.308595657348633 C30.66115959167479 3.306702346801785 30.66115959167479 3.306702346801785 28.755373001098633 3.297121047973633 C25.551253121861635 3.2808672143578406 22.3472637966791 3.2527626836204604 19.143220901489258 3.225587844848633 C16.795570768048094 3.207396428643335 14.447941888330377 3.1953687050159942 12.100252151489258 3.183595657348633 C11.386484146118164 3.175297317504885 10.67271614074707 3.1669989776611374 9.937318801879883 3.158449172973633 C-1.3188894348074882 3.104094571551002 -1.3188894348074882 3.104094571551002 -4.985685348510742 5.503908157348633 C-6.42421580822753 7.828489987180774 -6.396455717471895 9.402063018526462 -6.313810348510742 12.121095657348633 C-6.289318161010726 13.006681594848658 -6.264825973510767 13.892267532348626 -6.239591598510742 14.804689407348633 C-6.056484711113285 17.347840621202124 -5.592283555583776 19.75472196686144 -5.063810348510742 22.246095657348633 C-5.393810348510726 23.236095657348642 -5.723810348510767 24.22609565734865 -6.063810348510742 25.246095657348633 C-6.393810348510726 24.91609565734865 -6.723810348510767 24.586095657348608 -7.063810348510742 24.246095657348633 C-7.723810348510767 24.906095657348658 -8.383810348510735 25.566095657348626 -9.063810348510742 26.246095657348633 C-9.393810348510726 26.246095657348633 -9.723810348510767 26.246095657348633 -10.063810348510742 26.246095657348633 C-10.06288855552674 27.059088115692134 -10.061966762542738 27.872080574035635 -10.061017036437988 28.70970916748047 C-10.03134339418051 55.346832585387006 -10.0123233330674 81.98395804765266 -10.001310348510742 108.62109565734863 C-10.000876045227074 109.64132174968722 -10.000441741943348 110.66154784202575 -9.999994277954102 111.7126898765564 C-9.976270316524278 168.99664681498632 -10.073319741324042 226.27656387875925 -10.563810348510742 283.55859565734863 C-10.56978406429289 284.25839262962336 -10.575757780075094 284.9581896018982 -10.581912517547607 285.6791925430298 C-10.728903458493335 302.86829284609644 -10.8882664959973 320.05726213424987 -11.063810348510742 337.24609565734863 C-11.393810348510726 337.24609565734863 -11.723810348510767 337.24609565734863 -12.063810348510742 337.24609565734863 C-12.063810348510742 226.69609565734862 -12.063810348510742 116.14609565734861 -12.063810348510742 2.246095657348633 C-7.203545759334361 0.6260074609564867 -4.830485020612741 -0.0035492175022682204 0 0 Z " fill="#C4C4C3" transform="translate(345.06381034851074,262.75390434265137)"/>
<path d="M0 0 C94.05000000000001 0 188.10000000000002 0 285 0 C285 0.660000000000025 285 1.3199999999999932 285 2 C285.6600000000001 2 286.31999999999994 2 287 2 C287.0249530340259 6.250077533850458 287.0429783013103 10.500114813914593 287.054931640625 14.750244140625 C287.05992148443545 16.192309001839362 287.06671573475046 17.63436890847896 287.075439453125 19.076416015625 C287.08774204249266 21.164237799479793 287.0932818783963 23.251991987987196 287.09765625 25.33984375 C287.10027465820315 25.965643310546852 287.10027465820315 25.965643310546852 287.113525390625 29.132568359375 C287 33.00000000000006 287 33.00000000000006 286.5 36.946044921875 C285.64696313077275 44.10140383122899 285.87740784742687 51.328925941285206 285.90234375 58.5234375 C285.904212491763 60.117644809066974 285.9056342371042 61.71185269857426 285.90663146972656 63.306060791015625 C285.9104256830326 67.47725037615703 285.92022592578974 71.64840441664495 285.93133544921875 75.819580078125 C285.9415979097721 80.07372560732063 285.9461443493226 84.32787688112592 285.951171875 88.58203125 C285.960714114623 96.04350082115764 285.9751981908396 103.50494656261412 285.99327087402344 110.96640014648438 C285.9977321060944 112.97759640051817 286 114.98879879802365 286 117 C286.0254175559103 119.01033315284337 286.0509136948717 121.02066536705502 286.0769500732422 123.03099060058594 C286.11683158262997 126.43457548817014 286.1414154878455 129.83820949046992 286.164794921875 133.241943359375 C286.1799170102812 135.03724419908463 286.2004146253114 136.8325079012974 286.226318359375 138.627685546875 C286.26271986646384 141.21933010058865 286.2797240857218 143.81049021265903 286.29296875 146.40234375 C286.3084526062012 147.20349105834964 286.32393646240234 148.00463836669923 286.3398895263672 148.83006286621094 C286.34125149278657 153.34286293194305 285.8823240017591 155.5760635569606 283 159 C283.0022206115723 158.3640843200684 283.00444122314457 157.7281686401367 283.00672912597656 157.07298278808594 C283.0288999761664 150.43790245824994 283.04395581171275 143.80283270339277 283.054931640625 137.167724609375 C283.05995179471495 134.6934364048434 283.0667692554623 132.21915115345553 283.075439453125 129.744873046875 C283.08760656363074 126.18277251823622 283.09325158799993 122.62071131181494 283.09765625 119.05859375 C283.1028175354004 117.95728622436525 283.1079788208008 116.8559786987305 283.11329650878906 115.72129821777344 C283.1136850027217 110.36922450483729 282.94799094085874 105.27135447044964 282 100 C282.6600000000001 100 283.31999999999994 100 284 100 C284 99.00999999999999 284 98.01999999999998 284 97 C283.3399999999999 96.67000000000002 282.68000000000006 96.34000000000003 282 96 C282.1622607421875 94.91211181640625 282.32452148437505 93.8242236328125 282.49169921875 92.703369140625 C283.1529265052418 87.38387945887803 283.14355796141956 82.09997980729088 283.1328125 76.74609375 C283.13376922607426 75.68640884399417 283.1347259521484 74.62672393798829 283.1357116699219 73.53492736816406 C283.1363891879921 71.3052667262566 283.1345649067298 69.07560406635343 283.13037109375 66.845947265625 C283.12501147032776 63.44477896569208 283.13033343186817 60.04374238682135 283.13671875 56.642578125 C283.13605799666516 54.468749710458724 283.13477689238266 52.29492137739476 283.1328125 50.12109375 C283.1338246154785 49.61579887390138 283.1338246154785 49.61579887390138 283.1389465332031 47.05870056152344 C283.12201270028913 41.93010261265249 282.8097307865421 37.07725295000711 282 32 C282.08278773398206 29.476309399578156 282.2317995929121 26.954155597828105 282.4375 24.4375 C283.0019174405478 16.94019916217593 283.10576321574274 9.520939786151814 283 2 C280.03 1.670000000000016 277.05999999999995 1.339999999999975 274 1 C274 1.660000000000025 274 2.319999999999993 274 3 C273.41734375 2.927812500000016 272.8346875 2.855624999999975 272.234375 2.78125 C263.7604855122505 1.821941756103854 255.38996118358273 1.2991390445547495 247 3 C245.32845100022644 2.6920830789890715 243.66194452993955 2.356130970701372 242 2 C235.44444444444446 1.7777777777777715 235.44444444444446 1.7777777777777715 233 3 C230.8752651338466 2.767673125967349 228.75091977180614 2.5305641452707732 226.6298828125 2.2666015625 C222.04993693279494 1.8023144384155216 217.4742103081462 1.8561249918954559 212.875 1.875 C211.92496093750003 1.8711328124999795 210.97492187500006 1.867265625000016 209.99609375 1.86328125 C205.90164057773734 1.8689601032208998 201.9318247697612 1.9281692996452193 197.8828125 2.5703125 C196.93148437499997 2.7121093750000114 195.98015624999994 2.8539062500000227 195 3 C194.66999999999996 2.670000000000016 194.34000000000003 2.339999999999975 194 2 C192.18187800044723 1.900351121017252 190.35991215718627 1.8691950519925058 188.5390625 1.8671875 C187.42789062500003 1.8658984374999932 186.31671875000006 1.8646093749999864 185.171875 1.86328125 C184.58664062499997 1.8652148437499818 184.58664062499997 1.8652148437499818 181.625 1.875 C180.462265625 1.8711328124999795 179.29953124999997 1.867265625000016 178.1015625 1.86328125 C176.98781250000002 1.8645703125000068 175.87406250000004 1.8658593750000136 174.7265625 1.8671875 C173.70127441406248 1.8683154296875273 172.67598632812496 1.8694433593749977 171.61962890625 1.87060546875 C169 2 169 2 166 3 C164.91976562499997 2.8453124999999773 163.83953124999994 2.6906250000000114 162.7265625 2.53125 C159.0505264209669 2.0072029279365893 156.0559089527003 2.1276781748993017 152.375 2.5 C144.84581177013342 3.1035421426746552 137.50182783148057 2.810500606588903 129.97021484375 2.318359375 C129.1086376953125 2.2648632812499727 128.247060546875 2.2113671875000023 127.359375 2.15625 C126.59077148437495 2.1027539062499727 125.82216796875002 2.0492578125000023 125.0302734375 1.994140625 C123 2 123 2 120 3 C114 3 114 3 111.730712890625 2.50830078125 C108.54212435345448 1.9147700405804358 105.5520353728366 1.8703323287775788 102.30859375 1.8671875 C101.67147460937497 1.866542968750025 101.67147460937497 1.866542968750025 98.447265625 1.86328125 C98.11811157226566 1.864328613281259 98.11811157226566 1.864328613281259 96.452392578125 1.86962890625 C94.44019057779883 1.8749928277339905 92.42821084072273 1.8696637162204297 90.416015625 1.86328125 C89.779541015625 1.863925781249975 89.779541015625 1.863925781249975 86.55859375 1.8671875 C85.39642333984375 1.8683154296875273 84.2342529296875 1.8694433593749977 83.036865234375 1.87060546875 C80.48646754659944 1.9792726264412295 78.44396555542431 2.365269397778718 76 3 C75.83500000000004 2.8349999999999795 75.83500000000004 2.8349999999999795 75 2 C73.2548786858481 1.9004826450935752 71.50576789618395 1.8691969740964396 69.7578125 1.8671875 C69.22478515625 1.866542968750025 69.22478515625 1.866542968750025 66.52734375 1.86328125 C65.40457031250003 1.8671484375000205 64.281796875 1.871015624999984 63.125 1.875 C62.00996093750001 1.8711328124999795 60.89492187500002 1.867265625000016 59.74609375 1.86328125 C58.67746093749997 1.8645703125000068 57.608828125 1.8658593750000136 56.5078125 1.8671875 C55.524418945312505 1.8683154296875273 54.54102539062501 1.8694433593749977 53.52783203125 1.87060546875 C51 2 51 2 48 3 C48 2.339999999999975 48 1.6800000000000068 48 1 C47.086054687499995 1.072187499999984 46.17210937499999 1.144375000000025 45.23046875 1.21875 C35.719225198722256 1.904826889092817 26.222709859069482 2.1365538443380956 16.6875 2.1875 C15.50115966796875 2.2003906250000114 14.3148193359375 2.2132812500000227 13.092529296875 2.2265625 C11.972736816406268 2.227851562500007 10.85294433593748 2.2291406250000136 9.69921875 2.23046875 C9.19821655273438 2.232523193359384 9.19821655273438 2.232523193359384 6.662841796875 2.242919921875 C4 2 4 2 0 0 Z " fill="#DADADA" transform="translate(390,264)"/>
<path d="M0 0 C81.50999999999999 0 163.01999999999998 0 247 0 C245 2 245 2 243.19347989559174 2.2483969926834106 C242.45606301426892 2.2476375520229226 241.718646132946 2.2468781113624345 240.95888328552246 2.246095657348633 C240.53365967452532 2.248086705803871 240.53365967452532 2.248086705803871 238.38177049160004 2.2581626176834106 C237.4420957386494 2.25233693480493 236.50242098569868 2.2465112519264494 235.53427124023438 2.240509033203125 C235.0372652035951 2.2413634580373696 235.0372652035951 2.2413634580373696 232.52211344242096 2.2456873655319214 C229.17010661891823 2.2489983297436993 225.8182971701567 2.2379521701911926 222.46630859375 2.22705078125 C220.0719554111538 2.2264870142545305 217.67760188215493 2.2268025502837645 215.2832489013672 2.227935791015625 C210.11745650308592 2.2283921648456158 204.95170926607807 2.22269603698561 199.78593063354492 2.2114601135253906 C192.3170308882211 2.1952252928758185 184.8481555889697 2.1899991822101583 177.37924011051655 2.1874841302633286 C165.26225301507054 2.1831038492374546 153.14529280469742 2.1697857326684016 141.0283203125 2.15087890625 C129.25586074630428 2.132528712191629 117.48340847510059 2.118368002191403 105.7109375 2.10986328125 C104.98562302157285 2.1093378342687856 104.26030854314564 2.108812387287628 103.51301483809948 2.1082710176706314 C99.87442683813333 2.105660995643291 96.23583878637476 2.1031335669690634 92.59725069999695 2.100647211074829 C62.39814788315999 2.079904343198052 32.199077667490656 2.044521392163631 2 2 C1.9751543999315686 6.162593611468083 1.9570713750487698 10.325147133094163 1.945068359375 14.48779296875 C1.940060799989567 15.901863125530326 1.9332528192361451 17.315928161248962 1.924560546875 18.72998046875 C1.9123374375012077 20.77052072774137 1.906735804452353 22.810992119311834 1.90234375 24.8515625 C1.8971069335937614 26.07697753906251 1.8918701171875227 27.302392578125023 1.886474609375 28.56494140625 C1.9936043534686974 31.80648011463387 2.4215768188466313 34.814481031329194 3 38 C2.8411723474016526 42.05732458001165 2.13735411430838 46.10050017951414 1 50 C0.6700000000000159 50 0.339999999999975 50 0 50 C0 33.5 0 17 0 0 Z " fill="#E2E1E0" transform="translate(383,314)"/>
<path d="M0 0 C0.3300000000000409 0.660000000000025 0.6599999999999682 1.3199999999999932 1 2 C1.6599999999999682 2 2.32000000000005 2 3 2 C3.0249530340258843 6.250077533850458 3.0429783013103133 10.500114813914593 3.054931640625 14.750244140625 C3.059921484435449 16.192309001839362 3.0667157347505736 17.63436890847896 3.075439453125 19.076416015625 C3.0877420424925504 21.164237799479793 3.093281878396283 23.251991987987196 3.09765625 25.33984375 C3.1028930664062955 26.59144287109376 3.1081298828124773 27.843041992187523 3.113525390625 29.132568359375 C3 33 3 33 2.5 36.946044921875 C1.6469631307727468 44.10140383122905 1.8774078474268663 51.328925941285206 1.90234375 58.5234375 C1.904212491763019 60.117644809066974 1.9056342371042092 61.71185269857426 1.9066314697265625 63.306060791015625 C1.9104256830325994 67.47725037615703 1.9202259257898504 71.64840441664495 1.93133544921875 75.819580078125 C1.9415979097720992 80.07372560732063 1.946144349322708 84.32787688112592 1.951171875 88.58203125 C1.9607141146229878 96.04350082115764 1.975198190839592 103.50494656261412 1.9932708740234375 110.96640014648438 C1.9977321060944178 112.97759640051817 2 114.98879879802365 2 117 C2.0254175559102805 119.01033315284337 2.0509136948716105 121.02066536705502 2.0769500732421875 123.03099060058594 C2.1168315826299704 126.43457548817014 2.1414154878455065 129.83820949046992 2.164794921875 133.241943359375 C2.1799170102812013 135.03724419908463 2.200414625311396 136.8325079012974 2.226318359375 138.627685546875 C2.26271986646384 141.2193301005886 2.2797240857217957 143.81049021265903 2.29296875 146.40234375 C2.308452606201172 147.20349105834964 2.3239364624023438 148.00463836669923 2.3398895263671875 148.83006286621094 C2.3412514927865686 153.34286293194305 1.882324001759116 155.57606355696066 -1 159 C-0.9977793884277162 158.3640843200684 -0.9955587768554324 157.7281686401367 -0.9932708740234375 157.07298278808594 C-0.9711000238336283 150.43790245824994 -0.956044188287251 143.80283270339277 -0.945068359375 137.167724609375 C-0.9400482052850521 134.6934364048434 -0.9332307445376955 132.21915115345553 -0.924560546875 129.744873046875 C-0.912393436369257 126.18277251823622 -0.9067484120001836 122.62071131181494 -0.90234375 119.05859375 C-0.8971824645996094 117.95728622436525 -0.8920211791992188 116.8559786987305 -0.8867034912109375 115.72129821777344 C-0.8863149972783049 110.36922450483729 -1.0520090591412554 105.27135447044964 -2 100 C-1.3400000000000318 100 -0.67999999999995 100 0 100 C0 99.00999999999999 0 98.01999999999998 0 97 C-0.6599999999999682 96.67000000000002 -1.32000000000005 96.34000000000003 -2 96 C-1.8377392578124727 94.91211181640625 -1.6754785156249454 93.8242236328125 -1.50830078125 92.703369140625 C-0.8470734947582059 87.38387945887803 -0.8564420385804397 82.09997980729088 -0.8671875 76.74609375 C-0.8662307739257358 75.68640884399417 -0.8652740478515852 74.62672393798829 -0.864288330078125 73.53492736816406 C-0.8636108120078916 71.3052667262566 -0.8654350932702073 69.07560406635343 -0.86962890625 66.845947265625 C-0.8749885296722368 63.44477896569208 -0.8696665681318336 60.04374238682135 -0.86328125 56.642578125 C-0.8639420033348415 54.468749710458724 -0.8652231076173393 52.29492137739476 -0.8671875 50.12109375 C-0.8651632690430233 49.110503997802766 -0.863139038085933 48.099914245605476 -0.861053466796875 47.05870056152344 C-0.8779884693594795 41.929748371666676 -1.1930996452941827 37.077816200894574 -2 32 C-1.9170052960505473 29.349523970648136 -1.7835175710862359 26.761650707943545 -1.5625 24.125 C-1.2351033108939191 19.72383864382317 -0.9315885240481521 15.353840836447944 -1 10.9375 C-1 7.126999162595723 -0.6368049942142306 3.741229341008591 0 0 Z " fill="#D3D3D3" transform="translate(674,264)"/>
<path d="M0 0 C0.9807147216797034 0.00015106201169601263 1.96142944335935 0.0003021240234488687 2.97186279296875 0.000457763671875 C3.4974478149413812 0.005619049072265625 3.4974478149413812 0.005619049072265625 6.1572265625 0.03173828125 C6.698199768066388 0.033153228759772446 6.698199768066388 0.033153228759772446 9.43585205078125 0.040313720703125 C12.88996459907446 0.051504688744898885 16.34381743930578 0.07660758340017537 19.7978515625 0.10205078125 C22.140295733274286 0.11208196916186353 24.48274397005855 0.12120757702643914 26.8251953125 0.12939453125 C32.56616927284489 0.1514404854320901 38.306991861554025 0.18490743923655373 44.0478515625 0.22705078125 C40.2593764205223 2.7527008759017804 37.2871767983911 2.4635815777399444 32.9072265625 2.38720703125 C32.106819458007806 2.3820054626464753 31.30641235351561 2.3768038940429506 30.48175048828125 2.3714447021484375 C27.920266453070383 2.3536328105108737 25.35918217055979 2.3224993533912652 22.7978515625 2.28955078125 C20.250840709878503 2.261818699442415 17.703892955463004 2.237073043318105 15.15679931640625 2.2183685302734375 C13.572883750331926 2.2062399474307313 11.988996904856549 2.1887666087102957 10.40521240234375 2.1650543212890625 C-1.1713425273900384 2.061563986421902 -1.1713425273900384 2.061563986421902 -4.8740234375 4.48486328125 C-6.312553897216787 6.809445111082141 -6.284793806461153 8.38301814242783 -6.2021484375 11.10205078125 C-6.177656249999984 11.987636718750025 -6.153164062500025 12.873222656249993 -6.1279296875 13.78564453125 C-5.944822800102543 16.32879574510349 -5.480621644573034 18.735677090762806 -4.9521484375 21.22705078125 C-5.282148437499984 22.21705078125001 -5.612148437500025 23.207050781250018 -5.9521484375 24.22705078125 C-6.282148437499984 23.897050781250016 -6.612148437500025 23.567050781249975 -6.9521484375 23.22705078125 C-7.612148437500025 23.887050781250025 -8.272148437499993 24.547050781249993 -8.9521484375 25.22705078125 C-9.612148437500025 25.22705078125 -10.272148437499993 25.22705078125 -10.9521484375 25.22705078125 C-11.20700268772282 21.95768583749833 -11.426576747316972 18.686883370482178 -11.6396484375 15.41455078125 C-11.67606445312498 14.950166015624973 -11.67606445312498 14.950166015624973 -11.8603515625 12.60009765625 C-11.915136718749977 11.707421875000023 -11.969921875000011 10.814746093749989 -12.0263671875 9.89501953125 C-12.083972167968739 9.072839355468773 -12.141577148437477 8.250659179687489 -12.200927734375 7.403564453125 C-11.9521484375 5.22705078125 -11.9521484375 5.22705078125 -10.697509765625 3.560302734375 C-7.162020915848757 0.8596026912042021 -4.451139306582661 -0.022944017044267184 0 0 Z " fill="#DCDBDB" transform="translate(344.9521484375,263.77294921875)"/>
<path d="M0 0 C0.3300000000000409 0 0.6599999999999682 0 1 0 C1 2.3099999999999454 1 4.6200000000000045 1 7 C-10.549999999999955 7 -22.100000000000023 7 -34 7 C-29.624686297220364 4.812343148610125 -27.382437805896984 4.759953601719644 -22.5625 4.8125 C-21.26441406250001 4.818945312499977 -19.966328125000018 4.8253906249999545 -18.62890625 4.83203125 C-15.612771594647825 4.9716370521314275 -12.925280652603078 5.29545263665625 -10 6 C-9.752500000000055 5.360625000000027 -9.504999999999995 4.721250000000055 -9.25 4.0625 C-8 2 -8 2 -5.875 1.25 C-5.256250000000023 1.1675000000000182 -4.6375000000000455 1.0850000000000364 -4 1 C-4 1.6599999999999682 -4 2.32000000000005 -4 3 C-2.67999999999995 2.669999999999959 -1.3600000000000136 2.340000000000032 0 2 C0 1.3400000000000318 0 0.67999999999995 0 0 Z " fill="#D6D6D5" transform="translate(679,745)"/>
<path d="M0 0 C0.660000000000025 0.3299999999999841 1.3199999999999932 0.660000000000025 2 1 C1.670000000000016 5.2900000000000205 1.339999999999975 9.579999999999984 1 14 C1.660000000000025 14 2.319999999999993 14 3 14 C3.7995313779640583 17.286962331630093 4.0965893592098155 18.710231922370554 3 22 C2.670000000000016 21.670000000000016 2.339999999999975 21.339999999999975 2 21 C1.339999999999975 21.660000000000025 0.6800000000000068 22.319999999999993 0 23 C-0.660000000000025 23 -1.3199999999999932 23 -2 23 C-2.25485425022282 19.73063505624833 -2.4744283098169717 16.459832589232178 -2.6875 13.1875 C-2.7239160156249795 12.723115234374973 -2.7239160156249795 12.723115234374973 -2.908203125 10.373046875 C-2.9629882812499773 9.480371093750023 -3.0177734375000114 8.587695312499989 -3.07421875 7.66796875 C-3.1318237304687386 6.845788574218773 -3.1894287109374773 6.023608398437489 -3.248779296875 5.176513671875 C-2.9404408233025947 2.478930264713142 -2.0716840187661774 1.6739206871630472 0 0 Z " fill="#D3D2D1" transform="translate(336,266)"/>
<path d="M0 0 C0.660000000000025 0 1.3199999999999932 0 2 0 C2.1946366357228726 4.497798777682419 2.3729370605017266 8.995883486481375 2.537109375 13.494873046875 C2.594962722133232 15.020433670030627 2.657025719811429 16.54584142073128 2.7236328125 18.071044921875 C3.109767434891296 26.98431912207343 3.185621581689702 35.2610656043056 1 44 C0.6700000000000159 44 0.339999999999975 44 0 44 C0 29.480000000000018 0 14.95999999999998 0 0 Z " fill="#E3E3E2" transform="translate(383,465)"/>
<path d="M0 0 C0 3.9600000000000364 0 7.919999999999959 0 12 C-0.9900000000000091 12.330000000000041 -1.9800000000000182 12.659999999999968 -3 13 C-5.679273414882346 8.981089877676482 -5.156012484381108 6.758380773623799 -5 2 C-1.125 0 -1.125 0 0 0 Z " fill="#D1D1D0" transform="translate(677,716)"/>
<path d="M0 0 C0.3299999999999841 0 0.660000000000025 0 1 0 C1.329999999999984 3.9600000000000364 1.660000000000025 7.919999999999959 2 12 C6.8424163330709575 13.335838988433352 10.934376170014048 14.25328119149924 16 14 C16 14.659999999999968 16 15.32000000000005 16 16 C10.720000000000027 16 5.439999999999998 16 0 16 C0 10.720000000000027 0 5.440000000000055 0 0 Z " fill="#C9C9C8" transform="translate(333,736)"/>
<path d="M0 0 C2.5030437780345665 3.754565667051793 2.4528007447399887 5.547459343390187 2 10 C0 13.4375 0 13.4375 -2 16 C-4.256582277703615 11.48683544459277 -1.217350052963866 4.707086871460092 0 0 Z " fill="#D3D3D2" transform="translate(675,730)"/>
<path d="M0 0 C0.6599999999999682 0.3299999999999841 1.32000000000005 0.660000000000025 2 1 C2.184510250569474 15.781321184510261 2.184510250569474 15.781321184510261 1 22 C-1 20 -1 20 -1.23046875 17.20703125 C-1.1567508408007825 11.383316423261647 -1.0667396145328212 5.733725428113985 0 0 Z " fill="#D2D3D3" transform="translate(674,443)"/>
<path d="M0 0 C0.3300000000000409 0 0.6599999999999682 0 1 0 C1 2.3099999999999454 1 4.6200000000000045 1 7 C-1.6399999999999864 7 -4.279999999999973 7 -7 7 C-7 6.340000000000032 -7 5.67999999999995 -7 5 C-2.6153846153846416 2 -2.6153846153846416 2 0 2 C0 1.3400000000000318 0 0.67999999999995 0 0 Z " fill="#ABABAB" transform="translate(679,745)"/>
<path d="M0 0 C0.6599999999999682 0 1.32000000000005 0 2 0 C2.1799928028464137 5.219791282546055 1.9709480766467777 9.072629808383056 0 14 C-0.3300000000000409 14 -0.6599999999999682 14 -1 14 C-0.6699999999999591 9.379999999999995 -0.34000000000003183 4.759999999999991 0 0 Z " fill="#D4D6D5" transform="translate(674,429)"/>
<path d="M0 0 C2.9696808359882425 4.454521253982307 2.3490394724966563 8.90576316501972 1.5 14 C1.3350000000000364 14.660000000000025 1.169999999999959 15.319999999999993 1 16 C-1.4931064273228003 12.260340359015856 -1.0603260981181393 10.709293590992957 -0.625 6.3125 C-0.5141406249999818 5.133007812500011 -0.4032812499999636 3.9535156250000227 -0.2890625 2.73828125 C-0.19367187499994998 1.8346484374999932 -0.09828125000001364 0.9310156249999864 0 0 Z " fill="#D5D5D4" transform="translate(674,477)"/>
<path d="M0 0 C0.3300000000000409 0.660000000000025 0.6599999999999682 1.3199999999999932 1 2 C1.6599999999999682 2 2.32000000000005 2 3 2 C3.1953125 8.0546875 3.1953125 8.0546875 3 10 C2.340000000000032 10.660000000000025 1.67999999999995 11.319999999999993 1 12 C0.6699999999999591 8.04000000000002 0.34000000000003183 4.079999999999984 0 0 Z " fill="#C7C8C8" transform="translate(674,264)"/>
<path d="M0 0 C0.3299999999999841 0.9900000000000091 0.660000000000025 1.9800000000000182 1 3 C-2.6299999999999955 3 -6.259999999999991 3 -10 3 C-9.670000000000016 2.340000000000032 -9.339999999999975 1.67999999999995 -9 1 C-5.980032165583623 0.4509149391969913 -3.073806050662313 0 0 0 Z " fill="#DBDBDA" transform="translate(416,749)"/>
<path d="M0 0 C0.5981249999999818 0.18562499999995907 1.1962499999999636 0.37125000000003183 1.8125 0.5625 C4 1 4 1 7 0 C7.330000000000041 0.9900000000000091 7.659999999999968 1.9800000000000182 8 3 C4.7000000000000455 3 1.3999999999999773 3 -2 3 C-1.3400000000000318 2.009999999999991 -0.67999999999995 1.0199999999999818 0 0 Z " fill="#DEDEDD" transform="translate(587,749)"/>
<path d="M0 0 C0.6599999999999682 0.6599999999999682 1.32000000000005 1.32000000000005 2 2 C1.3400000000000318 4.309999999999945 0.67999999999995 6.6200000000000045 0 9 C-0.3300000000000409 9 -0.6599999999999682 9 -1 9 C-1.09765625 2.84765625 -1.09765625 2.84765625 -1 1 C-0.6699999999999591 0.6699999999999591 -0.34000000000003183 0.34000000000003183 0 0 Z " fill="#DEDEDC" transform="translate(673,717)"/>
<path d="M0 0 C1.0654695318247605 3.1964085954741677 1.074278383219962 5.6574727551017645 1 9 C0.6699999999999591 9.164999999999964 0.6699999999999591 9.164999999999964 -1 10 C-2.1583762624564997 5.945683081402365 -1.8369125658996381 3.7818788121462035 0 0 Z " fill="#D6D7D7" transform="translate(675,506)"/>
</svg>
