<svg width="100" height="100" xmlns="http://www.w3.org/2000/svg">
  <defs>
    <filter id="grain_cherry">
      <feTurbulence type="fractalNoise" baseFrequency="0.02 0.2" numOctaves="3" seed="3" result="noise"/>
      <feColorMatrix type="matrix" values="
        0 0 0 0 0
        0 0 0 0 0
        0 0 0 0 0
        0 0 0 0.5 0" in="noise" result="coloredNoise"/>
      <feBlend in="coloredNoise" in2="SourceGraphic" mode="multiply"/>
    </filter>
  </defs>
  
  <!-- Base Background -->
  <rect width="100" height="100" fill="#8B0000" />
  <rect width="100" height="100" fill="#8B0000" filter="url(#grain_cherry)" />
  
  <!-- Top Bevel -->
  <polygon points="0,0 100,0 70,30 30,30" fill="white" opacity="0.15"/>
  
  <!-- Bottom Bevel -->
  <polygon points="0,100 100,100 70,70 30,70" fill="black" opacity="0.6"/>
  
  <!-- Left Bevel -->
  <polygon points="0,0 30,30 30,70 0,100" fill="black" opacity="0.3"/>
  
  <!-- Right Bevel -->
  <polygon points="100,0 100,100 70,70 70,30" fill="black" opacity="0.48"/>
  
  <!-- Inner Bevel (Shadow) -->
  <rect x="30" y="30" width="40" height="40" fill="none" stroke="black" stroke-width="2" opacity="0.5"/>
  
  <!-- Outer Bevel (Highlight) -->
  <rect x="1" y="1" width="98" height="98" fill="none" stroke="white" stroke-width="2" opacity="0.3"/>
  
  <!-- Decorative Ridges -->
  <rect x="10" y="10" width="80" height="80" fill="none" stroke="black" stroke-width="1" opacity="0.2"/>
  <rect x="12" y="12" width="76" height="76" fill="none" stroke="white" stroke-width="1" opacity="0.1"/>
  
  <rect x="25" y="25" width="50" height="50" fill="none" stroke="black" stroke-width="1" opacity="0.3"/>
  
  <!-- Miter Lines -->
  <line x1="0" y1="0" x2="30" y2="30" stroke="black" stroke-width="1" opacity="0.4"/>
  <line x1="100" y1="0" x2="70" y2="30" stroke="black" stroke-width="1" opacity="0.4"/>
  <line x1="0" y1="100" x2="30" y2="70" stroke="black" stroke-width="1" opacity="0.4"/>
  <line x1="100" y1="100" x2="70" y2="70" stroke="black" stroke-width="1" opacity="0.4"/>
</svg>